<mxfile host="Electron" modified="2023-05-16T07:51:43.630Z" agent="Mozilla/5.0 (Windows NT 10.0; Win64; x64) AppleWebKit/537.36 (KHTML, like Gecko) draw.io/21.2.1 Chrome/112.0.5615.87 Electron/24.1.2 Safari/537.36" etag="-Kf7EetractCVRUIaeFs" version="21.2.1" type="device">
  <diagram name="Restaurante" id="pggJThX2oAlZrv-4kijY">
    <mxGraphModel dx="2141" dy="1675" grid="1" gridSize="10" guides="1" tooltips="1" connect="1" arrows="1" fold="1" page="1" pageScale="1" pageWidth="827" pageHeight="1169" math="0" shadow="0">
      <root>
        <mxCell id="0" />
        <mxCell id="1" parent="0" />
        <mxCell id="tU63LrtW1Hu26vX-Db3a-87" style="edgeStyle=none;rounded=0;orthogonalLoop=1;jettySize=auto;html=1;entryX=0.5;entryY=1;entryDx=0;entryDy=0;" parent="1" source="tU63LrtW1Hu26vX-Db3a-1" target="tU63LrtW1Hu26vX-Db3a-90" edge="1">
          <mxGeometry relative="1" as="geometry">
            <mxPoint x="-30" y="750" as="targetPoint" />
          </mxGeometry>
        </mxCell>
        <mxCell id="tU63LrtW1Hu26vX-Db3a-88" style="edgeStyle=none;rounded=0;orthogonalLoop=1;jettySize=auto;html=1;" parent="1" source="tU63LrtW1Hu26vX-Db3a-1" target="tU63LrtW1Hu26vX-Db3a-89" edge="1">
          <mxGeometry relative="1" as="geometry">
            <mxPoint x="80" y="750" as="targetPoint" />
          </mxGeometry>
        </mxCell>
        <mxCell id="tU63LrtW1Hu26vX-Db3a-186" style="edgeStyle=none;rounded=0;orthogonalLoop=1;jettySize=auto;html=1;entryX=1;entryY=0.5;entryDx=0;entryDy=0;shape=link;" parent="1" source="tU63LrtW1Hu26vX-Db3a-1" target="tU63LrtW1Hu26vX-Db3a-159" edge="1">
          <mxGeometry relative="1" as="geometry" />
        </mxCell>
        <mxCell id="tU63LrtW1Hu26vX-Db3a-1" value="Category" style="rounded=0;whiteSpace=wrap;html=1;fillColor=#e3c800;fontColor=#000000;strokeColor=#B09500;" parent="1" vertex="1">
          <mxGeometry x="475" y="160" width="130" height="40" as="geometry" />
        </mxCell>
        <mxCell id="tU63LrtW1Hu26vX-Db3a-20" style="edgeStyle=none;rounded=0;orthogonalLoop=1;jettySize=auto;html=1;entryX=0.5;entryY=1;entryDx=0;entryDy=0;" parent="1" source="tU63LrtW1Hu26vX-Db3a-2" target="tU63LrtW1Hu26vX-Db3a-25" edge="1">
          <mxGeometry relative="1" as="geometry">
            <mxPoint x="600" y="110" as="targetPoint" />
          </mxGeometry>
        </mxCell>
        <mxCell id="tU63LrtW1Hu26vX-Db3a-22" style="edgeStyle=none;rounded=0;orthogonalLoop=1;jettySize=auto;html=1;entryX=0.5;entryY=1;entryDx=0;entryDy=0;" parent="1" source="tU63LrtW1Hu26vX-Db3a-2" target="tU63LrtW1Hu26vX-Db3a-26" edge="1">
          <mxGeometry relative="1" as="geometry">
            <mxPoint x="420" y="110" as="targetPoint" />
          </mxGeometry>
        </mxCell>
        <mxCell id="tU63LrtW1Hu26vX-Db3a-23" style="edgeStyle=none;rounded=0;orthogonalLoop=1;jettySize=auto;html=1;" parent="1" source="tU63LrtW1Hu26vX-Db3a-2" target="tU63LrtW1Hu26vX-Db3a-27" edge="1">
          <mxGeometry relative="1" as="geometry">
            <mxPoint x="530" y="110" as="targetPoint" />
          </mxGeometry>
        </mxCell>
        <mxCell id="tU63LrtW1Hu26vX-Db3a-165" style="edgeStyle=none;rounded=0;orthogonalLoop=1;jettySize=auto;html=1;entryX=0.5;entryY=0;entryDx=0;entryDy=0;shape=link;" parent="1" source="tU63LrtW1Hu26vX-Db3a-2" target="tU63LrtW1Hu26vX-Db3a-167" edge="1">
          <mxGeometry relative="1" as="geometry">
            <mxPoint x="250" y="740" as="targetPoint" />
          </mxGeometry>
        </mxCell>
        <mxCell id="tU63LrtW1Hu26vX-Db3a-171" style="edgeStyle=none;rounded=0;orthogonalLoop=1;jettySize=auto;html=1;entryX=0;entryY=0.5;entryDx=0;entryDy=0;shape=link;" parent="1" source="tU63LrtW1Hu26vX-Db3a-2" target="tU63LrtW1Hu26vX-Db3a-173" edge="1">
          <mxGeometry relative="1" as="geometry">
            <mxPoint x="430" y="680" as="targetPoint" />
          </mxGeometry>
        </mxCell>
        <mxCell id="tU63LrtW1Hu26vX-Db3a-249" style="edgeStyle=none;shape=link;rounded=0;orthogonalLoop=1;jettySize=auto;html=1;width=5.384615384615383;" parent="1" source="tU63LrtW1Hu26vX-Db3a-2" edge="1">
          <mxGeometry relative="1" as="geometry">
            <mxPoint x="70" y="740" as="targetPoint" />
            <Array as="points" />
          </mxGeometry>
        </mxCell>
        <mxCell id="04_-kRFZyzAA1Dihmmcf-7" style="rounded=0;orthogonalLoop=1;jettySize=auto;html=1;entryX=0;entryY=0.5;entryDx=0;entryDy=0;shape=link;" parent="1" source="04_-kRFZyzAA1Dihmmcf-10" target="04_-kRFZyzAA1Dihmmcf-9" edge="1">
          <mxGeometry relative="1" as="geometry">
            <mxPoint x="500" y="830" as="targetPoint" />
          </mxGeometry>
        </mxCell>
        <mxCell id="04_-kRFZyzAA1Dihmmcf-69" style="edgeStyle=none;rounded=0;orthogonalLoop=1;jettySize=auto;html=1;entryX=1;entryY=1;entryDx=0;entryDy=0;" parent="1" source="tU63LrtW1Hu26vX-Db3a-2" target="04_-kRFZyzAA1Dihmmcf-70" edge="1">
          <mxGeometry relative="1" as="geometry">
            <mxPoint x="10" y="590" as="targetPoint" />
          </mxGeometry>
        </mxCell>
        <mxCell id="MzI8PsqjQWy4eNcxoBcf-10" style="edgeStyle=elbowEdgeStyle;rounded=0;orthogonalLoop=1;jettySize=auto;html=1;entryX=0;entryY=0.5;entryDx=0;entryDy=0;shape=link;width=-0.76923076923077;" parent="1" source="tU63LrtW1Hu26vX-Db3a-2" target="MzI8PsqjQWy4eNcxoBcf-11" edge="1">
          <mxGeometry relative="1" as="geometry">
            <mxPoint x="870" y="1510" as="targetPoint" />
            <Array as="points">
              <mxPoint x="-240" y="1250" />
              <mxPoint x="-190" y="820" />
              <mxPoint x="-260" y="1220" />
              <mxPoint x="-140" y="800" />
            </Array>
          </mxGeometry>
        </mxCell>
        <mxCell id="tU63LrtW1Hu26vX-Db3a-2" value="Restaurant" style="rounded=0;whiteSpace=wrap;html=1;fillColor=#e3c800;fontColor=#000000;strokeColor=#B09500;" parent="1" vertex="1">
          <mxGeometry x="170" y="660" width="130" height="40" as="geometry" />
        </mxCell>
        <mxCell id="tU63LrtW1Hu26vX-Db3a-85" style="edgeStyle=none;rounded=0;orthogonalLoop=1;jettySize=auto;html=1;" parent="1" source="tU63LrtW1Hu26vX-Db3a-4" target="tU63LrtW1Hu26vX-Db3a-86" edge="1">
          <mxGeometry relative="1" as="geometry">
            <mxPoint x="-80" y="490" as="targetPoint" />
          </mxGeometry>
        </mxCell>
        <mxCell id="tU63LrtW1Hu26vX-Db3a-94" style="edgeStyle=none;rounded=0;orthogonalLoop=1;jettySize=auto;html=1;" parent="1" source="tU63LrtW1Hu26vX-Db3a-4" target="tU63LrtW1Hu26vX-Db3a-95" edge="1">
          <mxGeometry relative="1" as="geometry">
            <mxPoint x="140" y="480" as="targetPoint" />
          </mxGeometry>
        </mxCell>
        <mxCell id="tU63LrtW1Hu26vX-Db3a-183" style="edgeStyle=none;rounded=0;orthogonalLoop=1;jettySize=auto;html=1;" parent="1" source="tU63LrtW1Hu26vX-Db3a-4" target="tU63LrtW1Hu26vX-Db3a-184" edge="1">
          <mxGeometry relative="1" as="geometry">
            <mxPoint x="500" y="430" as="targetPoint" />
          </mxGeometry>
        </mxCell>
        <mxCell id="tU63LrtW1Hu26vX-Db3a-187" style="edgeStyle=none;rounded=0;orthogonalLoop=1;jettySize=auto;html=1;entryX=0.5;entryY=1;entryDx=0;entryDy=0;shape=link;" parent="1" source="tU63LrtW1Hu26vX-Db3a-232" target="tU63LrtW1Hu26vX-Db3a-159" edge="1">
          <mxGeometry relative="1" as="geometry" />
        </mxCell>
        <mxCell id="04_-kRFZyzAA1Dihmmcf-43" style="edgeStyle=none;rounded=0;orthogonalLoop=1;jettySize=auto;html=1;" parent="1" source="tU63LrtW1Hu26vX-Db3a-4" edge="1">
          <mxGeometry relative="1" as="geometry">
            <mxPoint x="110" y="340" as="targetPoint" />
          </mxGeometry>
        </mxCell>
        <mxCell id="tU63LrtW1Hu26vX-Db3a-4" value="Item" style="rounded=0;whiteSpace=wrap;html=1;fillColor=#e3c800;fontColor=#000000;strokeColor=#B09500;" parent="1" vertex="1">
          <mxGeometry x="200" y="370" width="130" height="40" as="geometry" />
        </mxCell>
        <mxCell id="tU63LrtW1Hu26vX-Db3a-30" style="edgeStyle=none;rounded=0;orthogonalLoop=1;jettySize=auto;html=1;entryX=0;entryY=0.5;entryDx=0;entryDy=0;" parent="1" source="tU63LrtW1Hu26vX-Db3a-6" target="tU63LrtW1Hu26vX-Db3a-41" edge="1">
          <mxGeometry relative="1" as="geometry">
            <mxPoint x="1191" y="280" as="targetPoint" />
          </mxGeometry>
        </mxCell>
        <mxCell id="tU63LrtW1Hu26vX-Db3a-34" style="edgeStyle=none;rounded=0;orthogonalLoop=1;jettySize=auto;html=1;entryX=0;entryY=0.5;entryDx=0;entryDy=0;" parent="1" source="tU63LrtW1Hu26vX-Db3a-6" target="tU63LrtW1Hu26vX-Db3a-46" edge="1">
          <mxGeometry relative="1" as="geometry">
            <mxPoint x="1200" y="340" as="targetPoint" />
          </mxGeometry>
        </mxCell>
        <mxCell id="tU63LrtW1Hu26vX-Db3a-103" style="edgeStyle=none;rounded=0;orthogonalLoop=1;jettySize=auto;html=1;entryX=0;entryY=1;entryDx=0;entryDy=0;" parent="1" source="tU63LrtW1Hu26vX-Db3a-6" target="tU63LrtW1Hu26vX-Db3a-37" edge="1">
          <mxGeometry relative="1" as="geometry" />
        </mxCell>
        <mxCell id="tU63LrtW1Hu26vX-Db3a-151" style="edgeStyle=none;rounded=0;orthogonalLoop=1;jettySize=auto;html=1;entryX=1;entryY=0.5;entryDx=0;entryDy=0;" parent="1" source="tU63LrtW1Hu26vX-Db3a-6" target="tU63LrtW1Hu26vX-Db3a-153" edge="1">
          <mxGeometry relative="1" as="geometry">
            <mxPoint x="880" y="300" as="targetPoint" />
          </mxGeometry>
        </mxCell>
        <mxCell id="tU63LrtW1Hu26vX-Db3a-161" style="rounded=0;orthogonalLoop=1;jettySize=auto;html=1;entryX=0;entryY=1;entryDx=0;entryDy=0;" parent="1" source="tU63LrtW1Hu26vX-Db3a-6" target="tU63LrtW1Hu26vX-Db3a-35" edge="1">
          <mxGeometry relative="1" as="geometry" />
        </mxCell>
        <mxCell id="tU63LrtW1Hu26vX-Db3a-163" style="edgeStyle=none;rounded=0;orthogonalLoop=1;jettySize=auto;html=1;" parent="1" source="tU63LrtW1Hu26vX-Db3a-6" target="tU63LrtW1Hu26vX-Db3a-164" edge="1">
          <mxGeometry relative="1" as="geometry">
            <mxPoint x="1190" y="760" as="targetPoint" />
          </mxGeometry>
        </mxCell>
        <mxCell id="04_-kRFZyzAA1Dihmmcf-92" style="edgeStyle=none;rounded=0;orthogonalLoop=1;jettySize=auto;html=1;entryX=0.5;entryY=0;entryDx=0;entryDy=0;" parent="1" source="tU63LrtW1Hu26vX-Db3a-6" target="04_-kRFZyzAA1Dihmmcf-93" edge="1">
          <mxGeometry relative="1" as="geometry">
            <mxPoint x="1280.0000000000005" y="710" as="targetPoint" />
          </mxGeometry>
        </mxCell>
        <mxCell id="MzI8PsqjQWy4eNcxoBcf-9" style="rounded=0;orthogonalLoop=1;jettySize=auto;html=1;edgeStyle=elbowEdgeStyle;exitX=0.75;exitY=1;exitDx=0;exitDy=0;entryX=1;entryY=0.5;entryDx=0;entryDy=0;elbow=vertical;" parent="1" source="tU63LrtW1Hu26vX-Db3a-6" target="MzI8PsqjQWy4eNcxoBcf-11" edge="1">
          <mxGeometry relative="1" as="geometry">
            <mxPoint x="1360" y="1521.4285714285713" as="targetPoint" />
            <Array as="points">
              <mxPoint x="1750" y="750" />
              <mxPoint x="1870" y="1090" />
            </Array>
          </mxGeometry>
        </mxCell>
        <mxCell id="tU63LrtW1Hu26vX-Db3a-6" value="Customer" style="rounded=0;whiteSpace=wrap;html=1;fillColor=#e3c800;strokeColor=#B09500;fontColor=#000000;" parent="1" vertex="1">
          <mxGeometry x="1435" y="970" width="130" height="40" as="geometry" />
        </mxCell>
        <mxCell id="tU63LrtW1Hu26vX-Db3a-15" style="edgeStyle=none;rounded=0;orthogonalLoop=1;jettySize=auto;html=1;entryX=0.5;entryY=1;entryDx=0;entryDy=0;" parent="1" source="tU63LrtW1Hu26vX-Db3a-7" target="tU63LrtW1Hu26vX-Db3a-18" edge="1">
          <mxGeometry relative="1" as="geometry">
            <mxPoint x="780" y="130" as="targetPoint" />
          </mxGeometry>
        </mxCell>
        <mxCell id="tU63LrtW1Hu26vX-Db3a-152" style="edgeStyle=none;rounded=0;orthogonalLoop=1;jettySize=auto;html=1;entryX=0;entryY=0.5;entryDx=0;entryDy=0;shape=link;" parent="1" source="tU63LrtW1Hu26vX-Db3a-7" target="tU63LrtW1Hu26vX-Db3a-153" edge="1">
          <mxGeometry relative="1" as="geometry">
            <mxPoint x="840" y="260" as="targetPoint" />
          </mxGeometry>
        </mxCell>
        <mxCell id="tU63LrtW1Hu26vX-Db3a-176" style="edgeStyle=none;rounded=0;orthogonalLoop=1;jettySize=auto;html=1;entryX=0.5;entryY=0;entryDx=0;entryDy=0;shape=link;" parent="1" source="tU63LrtW1Hu26vX-Db3a-7" target="tU63LrtW1Hu26vX-Db3a-178" edge="1">
          <mxGeometry relative="1" as="geometry">
            <mxPoint x="740" y="480" as="targetPoint" />
          </mxGeometry>
        </mxCell>
        <mxCell id="tU63LrtW1Hu26vX-Db3a-182" style="edgeStyle=none;rounded=0;orthogonalLoop=1;jettySize=auto;html=1;entryX=1;entryY=0.5;entryDx=0;entryDy=0;shape=link;" parent="1" source="tU63LrtW1Hu26vX-Db3a-7" target="tU63LrtW1Hu26vX-Db3a-184" edge="1">
          <mxGeometry relative="1" as="geometry">
            <mxPoint x="570" y="420" as="targetPoint" />
          </mxGeometry>
        </mxCell>
        <mxCell id="04_-kRFZyzAA1Dihmmcf-73" style="edgeStyle=none;rounded=0;orthogonalLoop=1;jettySize=auto;html=1;entryX=0.5;entryY=1;entryDx=0;entryDy=0;" parent="1" source="tU63LrtW1Hu26vX-Db3a-7" target="04_-kRFZyzAA1Dihmmcf-74" edge="1">
          <mxGeometry relative="1" as="geometry">
            <mxPoint x="819.9999999999995" y="310" as="targetPoint" />
          </mxGeometry>
        </mxCell>
        <mxCell id="04_-kRFZyzAA1Dihmmcf-86" style="edgeStyle=none;rounded=0;orthogonalLoop=1;jettySize=auto;html=1;entryX=0.5;entryY=0;entryDx=0;entryDy=0;" parent="1" source="tU63LrtW1Hu26vX-Db3a-7" target="04_-kRFZyzAA1Dihmmcf-87" edge="1">
          <mxGeometry relative="1" as="geometry">
            <mxPoint x="1099.9999999999995" y="720" as="targetPoint" />
          </mxGeometry>
        </mxCell>
        <mxCell id="izwH1XyQJum0X2rPjAfv-2" style="rounded=0;orthogonalLoop=1;jettySize=auto;html=1;" parent="1" source="tU63LrtW1Hu26vX-Db3a-7" target="izwH1XyQJum0X2rPjAfv-1" edge="1">
          <mxGeometry relative="1" as="geometry" />
        </mxCell>
        <mxCell id="izwH1XyQJum0X2rPjAfv-3" style="edgeStyle=none;rounded=0;orthogonalLoop=1;jettySize=auto;html=1;entryX=0.5;entryY=1;entryDx=0;entryDy=0;" parent="1" source="tU63LrtW1Hu26vX-Db3a-7" target="izwH1XyQJum0X2rPjAfv-4" edge="1">
          <mxGeometry relative="1" as="geometry">
            <mxPoint x="900" y="170" as="targetPoint" />
          </mxGeometry>
        </mxCell>
        <mxCell id="izwH1XyQJum0X2rPjAfv-5" style="edgeStyle=none;rounded=0;orthogonalLoop=1;jettySize=auto;html=1;entryX=0;entryY=1;entryDx=0;entryDy=0;" parent="1" source="tU63LrtW1Hu26vX-Db3a-7" target="izwH1XyQJum0X2rPjAfv-6" edge="1">
          <mxGeometry relative="1" as="geometry">
            <mxPoint x="930" y="220" as="targetPoint" />
          </mxGeometry>
        </mxCell>
        <mxCell id="tU63LrtW1Hu26vX-Db3a-7" value="Order" style="rounded=0;whiteSpace=wrap;html=1;fillColor=#e3c800;fontColor=#000000;strokeColor=#B09500;" parent="1" vertex="1">
          <mxGeometry x="1030" y="365" width="130" height="40" as="geometry" />
        </mxCell>
        <mxCell id="tU63LrtW1Hu26vX-Db3a-108" style="edgeStyle=none;rounded=0;orthogonalLoop=1;jettySize=auto;html=1;entryX=0.5;entryY=0;entryDx=0;entryDy=0;" parent="1" source="tU63LrtW1Hu26vX-Db3a-9" target="tU63LrtW1Hu26vX-Db3a-111" edge="1">
          <mxGeometry relative="1" as="geometry">
            <mxPoint x="230" y="50" as="targetPoint" />
          </mxGeometry>
        </mxCell>
        <mxCell id="tU63LrtW1Hu26vX-Db3a-109" style="edgeStyle=none;rounded=0;orthogonalLoop=1;jettySize=auto;html=1;entryX=0.5;entryY=0;entryDx=0;entryDy=0;" parent="1" source="tU63LrtW1Hu26vX-Db3a-9" target="tU63LrtW1Hu26vX-Db3a-110" edge="1">
          <mxGeometry relative="1" as="geometry">
            <mxPoint x="90" y="50" as="targetPoint" />
          </mxGeometry>
        </mxCell>
        <mxCell id="tU63LrtW1Hu26vX-Db3a-166" style="edgeStyle=none;rounded=0;orthogonalLoop=1;jettySize=auto;html=1;shape=link;" parent="1" source="tU63LrtW1Hu26vX-Db3a-9" target="tU63LrtW1Hu26vX-Db3a-167" edge="1">
          <mxGeometry relative="1" as="geometry">
            <mxPoint x="250" y="790" as="targetPoint" />
          </mxGeometry>
        </mxCell>
        <mxCell id="tU63LrtW1Hu26vX-Db3a-168" style="edgeStyle=none;rounded=0;orthogonalLoop=1;jettySize=auto;html=1;entryX=0;entryY=0.5;entryDx=0;entryDy=0;" parent="1" source="tU63LrtW1Hu26vX-Db3a-9" target="tU63LrtW1Hu26vX-Db3a-170" edge="1">
          <mxGeometry relative="1" as="geometry">
            <mxPoint x="540" y="850" as="targetPoint" />
          </mxGeometry>
        </mxCell>
        <mxCell id="04_-kRFZyzAA1Dihmmcf-22" style="edgeStyle=none;rounded=0;orthogonalLoop=1;jettySize=auto;html=1;entryX=0.5;entryY=0;entryDx=0;entryDy=0;" parent="1" source="tU63LrtW1Hu26vX-Db3a-9" target="04_-kRFZyzAA1Dihmmcf-26" edge="1">
          <mxGeometry relative="1" as="geometry">
            <mxPoint x="310" y="1040" as="targetPoint" />
          </mxGeometry>
        </mxCell>
        <mxCell id="04_-kRFZyzAA1Dihmmcf-23" style="edgeStyle=none;rounded=0;orthogonalLoop=1;jettySize=auto;html=1;entryX=0.5;entryY=0;entryDx=0;entryDy=0;" parent="1" source="tU63LrtW1Hu26vX-Db3a-9" target="04_-kRFZyzAA1Dihmmcf-24" edge="1">
          <mxGeometry relative="1" as="geometry">
            <mxPoint x="394" y="1050" as="targetPoint" />
          </mxGeometry>
        </mxCell>
        <mxCell id="04_-kRFZyzAA1Dihmmcf-36" style="edgeStyle=none;rounded=0;orthogonalLoop=1;jettySize=auto;html=1;entryX=1;entryY=0;entryDx=0;entryDy=0;" parent="1" source="tU63LrtW1Hu26vX-Db3a-9" target="04_-kRFZyzAA1Dihmmcf-37" edge="1">
          <mxGeometry relative="1" as="geometry">
            <mxPoint x="220" y="1000" as="targetPoint" />
          </mxGeometry>
        </mxCell>
        <mxCell id="tU63LrtW1Hu26vX-Db3a-9" value="Casher" style="rounded=0;whiteSpace=wrap;html=1;fillColor=#e3c800;fontColor=#000000;strokeColor=#B09500;" parent="1" vertex="1">
          <mxGeometry x="105" y="1590" width="130" height="40" as="geometry" />
        </mxCell>
        <mxCell id="tU63LrtW1Hu26vX-Db3a-18" value="&lt;u&gt;ID&lt;/u&gt;" style="ellipse;whiteSpace=wrap;html=1;fillColor=#a20025;fontColor=#ffffff;strokeColor=#6F0000;" parent="1" vertex="1">
          <mxGeometry x="870" y="230" width="100" height="40" as="geometry" />
        </mxCell>
        <mxCell id="tU63LrtW1Hu26vX-Db3a-25" value="&lt;u&gt;ID&lt;/u&gt;" style="ellipse;whiteSpace=wrap;html=1;fillColor=#a20025;fontColor=#ffffff;strokeColor=#6F0000;" parent="1" vertex="1">
          <mxGeometry x="70" y="565" width="100" height="40" as="geometry" />
        </mxCell>
        <mxCell id="tU63LrtW1Hu26vX-Db3a-26" value="Address" style="ellipse;whiteSpace=wrap;html=1;fillColor=#a20025;fontColor=#ffffff;strokeColor=#6F0000;" parent="1" vertex="1">
          <mxGeometry x="180" y="565" width="100" height="40" as="geometry" />
        </mxCell>
        <mxCell id="tU63LrtW1Hu26vX-Db3a-27" value="Name" style="ellipse;whiteSpace=wrap;html=1;fillColor=#a20025;fontColor=#ffffff;strokeColor=#6F0000;" parent="1" vertex="1">
          <mxGeometry x="285" y="570" width="100" height="40" as="geometry" />
        </mxCell>
        <mxCell id="tU63LrtW1Hu26vX-Db3a-28" style="edgeStyle=none;rounded=0;orthogonalLoop=1;jettySize=auto;html=1;exitX=0.5;exitY=1;exitDx=0;exitDy=0;" parent="1" source="tU63LrtW1Hu26vX-Db3a-27" target="tU63LrtW1Hu26vX-Db3a-27" edge="1">
          <mxGeometry relative="1" as="geometry" />
        </mxCell>
        <mxCell id="tU63LrtW1Hu26vX-Db3a-35" value="&lt;u&gt;Customer ID&lt;/u&gt;" style="ellipse;whiteSpace=wrap;html=1;fillColor=#a20025;fontColor=#ffffff;strokeColor=#6F0000;" parent="1" vertex="1">
          <mxGeometry x="1535" y="800" width="100" height="40" as="geometry" />
        </mxCell>
        <mxCell id="tU63LrtW1Hu26vX-Db3a-37" value="Address" style="ellipse;whiteSpace=wrap;html=1;fillColor=#a20025;fontColor=#ffffff;strokeColor=#6F0000;" parent="1" vertex="1">
          <mxGeometry x="1500" y="745" width="100" height="40" as="geometry" />
        </mxCell>
        <mxCell id="tU63LrtW1Hu26vX-Db3a-41" value="Phone" style="ellipse;shape=doubleEllipse;margin=3;whiteSpace=wrap;html=1;align=center;fillColor=#647687;strokeColor=#314354;fontColor=#ffffff;" parent="1" vertex="1">
          <mxGeometry x="1565" y="850" width="110" height="40" as="geometry" />
        </mxCell>
        <mxCell id="tU63LrtW1Hu26vX-Db3a-44" style="edgeStyle=none;rounded=0;orthogonalLoop=1;jettySize=auto;html=1;entryX=0;entryY=0.5;entryDx=0;entryDy=0;exitX=1;exitY=0.5;exitDx=0;exitDy=0;" parent="1" source="tU63LrtW1Hu26vX-Db3a-6" target="tU63LrtW1Hu26vX-Db3a-45" edge="1">
          <mxGeometry relative="1" as="geometry">
            <mxPoint x="1350" y="370" as="targetPoint" />
            <mxPoint x="1283.4482365811286" y="354.86588292494594" as="sourcePoint" />
          </mxGeometry>
        </mxCell>
        <mxCell id="tU63LrtW1Hu26vX-Db3a-45" value="Last name" style="ellipse;whiteSpace=wrap;html=1;fillColor=#a20025;fontColor=#ffffff;strokeColor=#6F0000;" parent="1" vertex="1">
          <mxGeometry x="1610" y="950" width="100" height="40" as="geometry" />
        </mxCell>
        <mxCell id="tU63LrtW1Hu26vX-Db3a-46" value="First name" style="ellipse;whiteSpace=wrap;html=1;fillColor=#a20025;fontColor=#ffffff;strokeColor=#6F0000;" parent="1" vertex="1">
          <mxGeometry x="1600" y="900" width="100" height="40" as="geometry" />
        </mxCell>
        <mxCell id="tU63LrtW1Hu26vX-Db3a-48" style="edgeStyle=none;rounded=0;orthogonalLoop=1;jettySize=auto;html=1;exitX=0;exitY=1;exitDx=0;exitDy=0;" parent="1" edge="1">
          <mxGeometry relative="1" as="geometry">
            <mxPoint x="1094.6446609406726" y="234.14213562373084" as="sourcePoint" />
            <mxPoint x="1094.6446609406726" y="234.14213562373084" as="targetPoint" />
          </mxGeometry>
        </mxCell>
        <mxCell id="tU63LrtW1Hu26vX-Db3a-112" style="edgeStyle=none;rounded=0;orthogonalLoop=1;jettySize=auto;html=1;" parent="1" source="tU63LrtW1Hu26vX-Db3a-81" target="tU63LrtW1Hu26vX-Db3a-115" edge="1">
          <mxGeometry relative="1" as="geometry">
            <mxPoint x="-20" y="240" as="targetPoint" />
          </mxGeometry>
        </mxCell>
        <mxCell id="tU63LrtW1Hu26vX-Db3a-113" style="edgeStyle=none;rounded=0;orthogonalLoop=1;jettySize=auto;html=1;" parent="1" source="tU63LrtW1Hu26vX-Db3a-81" target="tU63LrtW1Hu26vX-Db3a-114" edge="1">
          <mxGeometry relative="1" as="geometry">
            <mxPoint x="-30" y="300" as="targetPoint" />
          </mxGeometry>
        </mxCell>
        <mxCell id="tU63LrtW1Hu26vX-Db3a-162" style="rounded=0;orthogonalLoop=1;jettySize=auto;html=1;entryX=0.5;entryY=1;entryDx=0;entryDy=0;shape=link;" parent="1" source="tU63LrtW1Hu26vX-Db3a-81" target="tU63LrtW1Hu26vX-Db3a-164" edge="1">
          <mxGeometry relative="1" as="geometry">
            <mxPoint x="1110" y="790" as="targetPoint" />
          </mxGeometry>
        </mxCell>
        <mxCell id="tU63LrtW1Hu26vX-Db3a-169" style="edgeStyle=none;rounded=0;orthogonalLoop=1;jettySize=auto;html=1;entryX=1;entryY=0.5;entryDx=0;entryDy=0;shape=link;" parent="1" source="tU63LrtW1Hu26vX-Db3a-81" target="tU63LrtW1Hu26vX-Db3a-170" edge="1">
          <mxGeometry relative="1" as="geometry">
            <mxPoint x="640" y="850" as="targetPoint" />
          </mxGeometry>
        </mxCell>
        <mxCell id="tU63LrtW1Hu26vX-Db3a-223" style="edgeStyle=none;rounded=0;orthogonalLoop=1;jettySize=auto;html=1;" parent="1" source="tU63LrtW1Hu26vX-Db3a-81" target="tU63LrtW1Hu26vX-Db3a-224" edge="1">
          <mxGeometry relative="1" as="geometry">
            <mxPoint x="1180" y="920" as="targetPoint" />
          </mxGeometry>
        </mxCell>
        <mxCell id="tU63LrtW1Hu26vX-Db3a-81" value="Bill" style="whiteSpace=wrap;html=1;align=center;fillColor=#e3c800;fontColor=#000000;strokeColor=#B09500;" parent="1" vertex="1">
          <mxGeometry x="1465" y="1620" width="110" height="40" as="geometry" />
        </mxCell>
        <mxCell id="tU63LrtW1Hu26vX-Db3a-86" value="Item id" style="ellipse;whiteSpace=wrap;html=1;align=center;fontStyle=4;fillColor=#a20025;fontColor=#ffffff;strokeColor=#6F0000;" parent="1" vertex="1">
          <mxGeometry x="40" y="375" width="100" height="40" as="geometry" />
        </mxCell>
        <mxCell id="tU63LrtW1Hu26vX-Db3a-89" value="&lt;u&gt;Category ID&lt;/u&gt;" style="ellipse;whiteSpace=wrap;html=1;align=center;fillColor=#a20025;fontColor=#ffffff;strokeColor=#6F0000;" parent="1" vertex="1">
          <mxGeometry x="570" y="60" width="100" height="40" as="geometry" />
        </mxCell>
        <mxCell id="tU63LrtW1Hu26vX-Db3a-90" value="Category Name" style="ellipse;whiteSpace=wrap;html=1;align=center;fillColor=#a20025;fontColor=#ffffff;strokeColor=#6F0000;" parent="1" vertex="1">
          <mxGeometry x="450" y="60" width="100" height="40" as="geometry" />
        </mxCell>
        <mxCell id="tU63LrtW1Hu26vX-Db3a-95" value="Item Price" style="ellipse;whiteSpace=wrap;html=1;align=center;fillColor=#a20025;fontColor=#ffffff;strokeColor=#6F0000;" parent="1" vertex="1">
          <mxGeometry x="40" y="435" width="100" height="40" as="geometry" />
        </mxCell>
        <mxCell id="tU63LrtW1Hu26vX-Db3a-101" style="edgeStyle=none;rounded=0;orthogonalLoop=1;jettySize=auto;html=1;exitX=0.5;exitY=0;exitDx=0;exitDy=0;" parent="1" edge="1">
          <mxGeometry relative="1" as="geometry">
            <mxPoint x="464" y="490" as="sourcePoint" />
            <mxPoint x="464" y="490" as="targetPoint" />
          </mxGeometry>
        </mxCell>
        <mxCell id="tU63LrtW1Hu26vX-Db3a-105" value="Order Time" style="ellipse;whiteSpace=wrap;html=1;align=center;fillColor=#a20025;fontColor=#ffffff;strokeColor=#6F0000;" parent="1" vertex="1">
          <mxGeometry x="1300" y="475" width="90" height="40" as="geometry" />
        </mxCell>
        <mxCell id="tU63LrtW1Hu26vX-Db3a-110" value="&lt;u&gt;ID&lt;/u&gt;" style="ellipse;whiteSpace=wrap;html=1;align=center;fillColor=#a20025;fontColor=#ffffff;strokeColor=#6F0000;" parent="1" vertex="1">
          <mxGeometry x="180" y="1734" width="100" height="40" as="geometry" />
        </mxCell>
        <mxCell id="tU63LrtW1Hu26vX-Db3a-111" value="Name" style="ellipse;whiteSpace=wrap;html=1;align=center;fillColor=#a20025;fontColor=#ffffff;strokeColor=#6F0000;" parent="1" vertex="1">
          <mxGeometry x="235" y="1680" width="100" height="40" as="geometry" />
        </mxCell>
        <mxCell id="tU63LrtW1Hu26vX-Db3a-114" value="&lt;u&gt;ID&lt;/u&gt;" style="ellipse;whiteSpace=wrap;html=1;align=center;fillColor=#a20025;fontColor=#ffffff;strokeColor=#6F0000;" parent="1" vertex="1">
          <mxGeometry x="1455" y="1770" width="100" height="40" as="geometry" />
        </mxCell>
        <mxCell id="tU63LrtW1Hu26vX-Db3a-115" value="Order details" style="ellipse;whiteSpace=wrap;html=1;align=center;fillColor=#a20025;fontColor=#ffffff;strokeColor=#6F0000;" parent="1" vertex="1">
          <mxGeometry x="1565" y="1754" width="100" height="40" as="geometry" />
        </mxCell>
        <mxCell id="tU63LrtW1Hu26vX-Db3a-123" style="edgeStyle=none;rounded=0;orthogonalLoop=1;jettySize=auto;html=1;" parent="1" source="tU63LrtW1Hu26vX-Db3a-116" target="tU63LrtW1Hu26vX-Db3a-126" edge="1">
          <mxGeometry relative="1" as="geometry">
            <mxPoint x="670" y="570" as="targetPoint" />
          </mxGeometry>
        </mxCell>
        <mxCell id="tU63LrtW1Hu26vX-Db3a-124" style="edgeStyle=none;rounded=0;orthogonalLoop=1;jettySize=auto;html=1;" parent="1" source="tU63LrtW1Hu26vX-Db3a-116" target="tU63LrtW1Hu26vX-Db3a-125" edge="1">
          <mxGeometry relative="1" as="geometry">
            <mxPoint x="560" y="570" as="targetPoint" />
          </mxGeometry>
        </mxCell>
        <mxCell id="tU63LrtW1Hu26vX-Db3a-127" style="edgeStyle=none;rounded=0;orthogonalLoop=1;jettySize=auto;html=1;" parent="1" source="tU63LrtW1Hu26vX-Db3a-116" target="tU63LrtW1Hu26vX-Db3a-128" edge="1">
          <mxGeometry relative="1" as="geometry">
            <mxPoint x="720" y="530" as="targetPoint" />
          </mxGeometry>
        </mxCell>
        <mxCell id="tU63LrtW1Hu26vX-Db3a-154" style="edgeStyle=none;rounded=0;orthogonalLoop=1;jettySize=auto;html=1;entryX=0;entryY=0.5;entryDx=0;entryDy=0;shape=link;" parent="1" source="tU63LrtW1Hu26vX-Db3a-247" target="tU63LrtW1Hu26vX-Db3a-156" edge="1">
          <mxGeometry relative="1" as="geometry">
            <mxPoint x="840" y="570" as="targetPoint" />
          </mxGeometry>
        </mxCell>
        <mxCell id="tU63LrtW1Hu26vX-Db3a-172" style="edgeStyle=none;rounded=0;orthogonalLoop=1;jettySize=auto;html=1;entryX=1;entryY=0.5;entryDx=0;entryDy=0;shape=link;" parent="1" source="tU63LrtW1Hu26vX-Db3a-216" target="tU63LrtW1Hu26vX-Db3a-173" edge="1">
          <mxGeometry relative="1" as="geometry">
            <mxPoint x="510" y="680" as="targetPoint" />
          </mxGeometry>
        </mxCell>
        <mxCell id="tU63LrtW1Hu26vX-Db3a-175" style="edgeStyle=none;rounded=0;orthogonalLoop=1;jettySize=auto;html=1;entryX=0.5;entryY=1;entryDx=0;entryDy=0;" parent="1" source="tU63LrtW1Hu26vX-Db3a-228" target="tU63LrtW1Hu26vX-Db3a-178" edge="1">
          <mxGeometry relative="1" as="geometry">
            <mxPoint x="720" y="540" as="targetPoint" />
          </mxGeometry>
        </mxCell>
        <mxCell id="tU63LrtW1Hu26vX-Db3a-243" value="" style="edgeStyle=none;rounded=0;orthogonalLoop=1;jettySize=auto;html=1;" parent="1" source="tU63LrtW1Hu26vX-Db3a-116" target="tU63LrtW1Hu26vX-Db3a-126" edge="1">
          <mxGeometry relative="1" as="geometry" />
        </mxCell>
        <mxCell id="tU63LrtW1Hu26vX-Db3a-244" value="" style="edgeStyle=none;rounded=0;orthogonalLoop=1;jettySize=auto;html=1;" parent="1" source="tU63LrtW1Hu26vX-Db3a-116" target="tU63LrtW1Hu26vX-Db3a-126" edge="1">
          <mxGeometry relative="1" as="geometry" />
        </mxCell>
        <mxCell id="tU63LrtW1Hu26vX-Db3a-116" value="Organizers" style="whiteSpace=wrap;html=1;align=center;fillColor=#e3c800;fontColor=#000000;strokeColor=#B09500;" parent="1" vertex="1">
          <mxGeometry x="630" y="650" width="110" height="40" as="geometry" />
        </mxCell>
        <mxCell id="tU63LrtW1Hu26vX-Db3a-119" style="edgeStyle=none;rounded=0;orthogonalLoop=1;jettySize=auto;html=1;" parent="1" source="tU63LrtW1Hu26vX-Db3a-118" target="tU63LrtW1Hu26vX-Db3a-122" edge="1">
          <mxGeometry relative="1" as="geometry">
            <mxPoint x="950" y="720" as="targetPoint" />
          </mxGeometry>
        </mxCell>
        <mxCell id="tU63LrtW1Hu26vX-Db3a-120" style="edgeStyle=none;rounded=0;orthogonalLoop=1;jettySize=auto;html=1;" parent="1" source="tU63LrtW1Hu26vX-Db3a-118" target="tU63LrtW1Hu26vX-Db3a-121" edge="1">
          <mxGeometry relative="1" as="geometry">
            <mxPoint x="845" y="720" as="targetPoint" />
          </mxGeometry>
        </mxCell>
        <mxCell id="tU63LrtW1Hu26vX-Db3a-155" style="edgeStyle=none;rounded=0;orthogonalLoop=1;jettySize=auto;html=1;" parent="1" source="tU63LrtW1Hu26vX-Db3a-118" target="tU63LrtW1Hu26vX-Db3a-156" edge="1">
          <mxGeometry relative="1" as="geometry">
            <mxPoint x="890" y="570" as="targetPoint" />
          </mxGeometry>
        </mxCell>
        <mxCell id="04_-kRFZyzAA1Dihmmcf-8" style="edgeStyle=none;rounded=0;orthogonalLoop=1;jettySize=auto;html=1;entryX=1;entryY=0.5;entryDx=0;entryDy=0;shape=link;" parent="1" source="tU63LrtW1Hu26vX-Db3a-118" target="04_-kRFZyzAA1Dihmmcf-9" edge="1">
          <mxGeometry relative="1" as="geometry">
            <mxPoint x="600" y="850" as="targetPoint" />
          </mxGeometry>
        </mxCell>
        <mxCell id="04_-kRFZyzAA1Dihmmcf-42" style="edgeStyle=none;rounded=0;orthogonalLoop=1;jettySize=auto;html=1;entryX=0;entryY=0.5;entryDx=0;entryDy=0;" parent="1" source="tU63LrtW1Hu26vX-Db3a-118" target="04_-kRFZyzAA1Dihmmcf-41" edge="1">
          <mxGeometry relative="1" as="geometry" />
        </mxCell>
        <mxCell id="04_-kRFZyzAA1Dihmmcf-77" style="edgeStyle=none;rounded=0;orthogonalLoop=1;jettySize=auto;html=1;entryX=1;entryY=0.5;entryDx=0;entryDy=0;exitX=0.75;exitY=1;exitDx=0;exitDy=0;shape=link;" parent="1" source="tU63LrtW1Hu26vX-Db3a-118" target="04_-kRFZyzAA1Dihmmcf-78" edge="1">
          <mxGeometry relative="1" as="geometry">
            <mxPoint x="879.9999999999995" y="960" as="targetPoint" />
          </mxGeometry>
        </mxCell>
        <mxCell id="04_-kRFZyzAA1Dihmmcf-79" style="edgeStyle=none;rounded=0;orthogonalLoop=1;jettySize=auto;html=1;entryX=0.5;entryY=0;entryDx=0;entryDy=0;exitX=0;exitY=1;exitDx=0;exitDy=0;" parent="1" source="tU63LrtW1Hu26vX-Db3a-118" target="04_-kRFZyzAA1Dihmmcf-78" edge="1">
          <mxGeometry relative="1" as="geometry" />
        </mxCell>
        <mxCell id="8JrK8QZhRtHGz3mlY4Qh-5" style="edgeStyle=orthogonalEdgeStyle;rounded=0;orthogonalLoop=1;jettySize=auto;html=1;exitX=0.5;exitY=0;exitDx=0;exitDy=0;" parent="1" source="tU63LrtW1Hu26vX-Db3a-118" edge="1">
          <mxGeometry relative="1" as="geometry">
            <mxPoint x="765.5384615384614" y="1300.3076923076924" as="targetPoint" />
          </mxGeometry>
        </mxCell>
        <mxCell id="tU63LrtW1Hu26vX-Db3a-118" value="Cheff" style="whiteSpace=wrap;html=1;align=center;fillColor=#e3c800;fontColor=#000000;strokeColor=#B09500;" parent="1" vertex="1">
          <mxGeometry x="717" y="1310" width="110" height="40" as="geometry" />
        </mxCell>
        <mxCell id="tU63LrtW1Hu26vX-Db3a-121" value="Name" style="ellipse;whiteSpace=wrap;html=1;align=center;fillColor=#a20025;fontColor=#ffffff;strokeColor=#6F0000;" parent="1" vertex="1">
          <mxGeometry x="890" y="1330" width="100" height="40" as="geometry" />
        </mxCell>
        <mxCell id="8JrK8QZhRtHGz3mlY4Qh-4" style="edgeStyle=orthogonalEdgeStyle;rounded=0;orthogonalLoop=1;jettySize=auto;html=1;exitX=0.5;exitY=1;exitDx=0;exitDy=0;" parent="1" source="tU63LrtW1Hu26vX-Db3a-122" edge="1">
          <mxGeometry relative="1" as="geometry">
            <mxPoint x="940" y="1290" as="targetPoint" />
          </mxGeometry>
        </mxCell>
        <mxCell id="tU63LrtW1Hu26vX-Db3a-122" value="ID" style="ellipse;whiteSpace=wrap;html=1;align=center;fontStyle=4;fillColor=#a20025;fontColor=#ffffff;strokeColor=#6F0000;" parent="1" vertex="1">
          <mxGeometry x="890" y="1270" width="100" height="40" as="geometry" />
        </mxCell>
        <mxCell id="tU63LrtW1Hu26vX-Db3a-125" value="Name" style="ellipse;whiteSpace=wrap;html=1;align=center;fillColor=#a20025;fontColor=#ffffff;strokeColor=#6F0000;" parent="1" vertex="1">
          <mxGeometry x="820" y="675" width="100" height="40" as="geometry" />
        </mxCell>
        <mxCell id="tU63LrtW1Hu26vX-Db3a-126" value="ID" style="ellipse;whiteSpace=wrap;html=1;align=center;fontStyle=4;fillColor=#a20025;fontColor=#ffffff;strokeColor=#6F0000;" parent="1" vertex="1">
          <mxGeometry x="800" y="570" width="100" height="40" as="geometry" />
        </mxCell>
        <mxCell id="tU63LrtW1Hu26vX-Db3a-128" value="Phone" style="ellipse;whiteSpace=wrap;html=1;align=center;fillColor=#a20025;fontColor=#ffffff;strokeColor=#6F0000;" parent="1" vertex="1">
          <mxGeometry x="852" y="619.5" width="100" height="40" as="geometry" />
        </mxCell>
        <mxCell id="04_-kRFZyzAA1Dihmmcf-16" style="edgeStyle=none;rounded=0;orthogonalLoop=1;jettySize=auto;html=1;entryX=0.5;entryY=1;entryDx=0;entryDy=0;exitX=0.5;exitY=0;exitDx=0;exitDy=0;" parent="1" source="tU63LrtW1Hu26vX-Db3a-153" target="tU63LrtW1Hu26vX-Db3a-105" edge="1">
          <mxGeometry relative="1" as="geometry" />
        </mxCell>
        <mxCell id="04_-kRFZyzAA1Dihmmcf-18" style="edgeStyle=none;rounded=0;orthogonalLoop=1;jettySize=auto;html=1;entryX=0.5;entryY=1;entryDx=0;entryDy=0;exitX=1;exitY=0;exitDx=0;exitDy=0;" parent="1" source="tU63LrtW1Hu26vX-Db3a-153" target="04_-kRFZyzAA1Dihmmcf-19" edge="1">
          <mxGeometry relative="1" as="geometry">
            <mxPoint x="1170.0000000000005" y="400" as="targetPoint" />
          </mxGeometry>
        </mxCell>
        <mxCell id="tU63LrtW1Hu26vX-Db3a-153" value="Request" style="shape=rhombus;perimeter=rhombusPerimeter;whiteSpace=wrap;html=1;align=center;fillColor=#6d8764;fontColor=#ffffff;strokeColor=#3A5431;" parent="1" vertex="1">
          <mxGeometry x="1300" y="560" width="120" height="50" as="geometry" />
        </mxCell>
        <mxCell id="tU63LrtW1Hu26vX-Db3a-156" value="Tells" style="shape=rhombus;perimeter=rhombusPerimeter;whiteSpace=wrap;html=1;align=center;fillColor=#6d8764;fontColor=#ffffff;strokeColor=#3A5431;" parent="1" vertex="1">
          <mxGeometry x="740" y="920" width="90" height="60" as="geometry" />
        </mxCell>
        <mxCell id="tU63LrtW1Hu26vX-Db3a-159" value="Subset" style="shape=rhombus;perimeter=rhombusPerimeter;whiteSpace=wrap;html=1;align=center;fillColor=#6d8764;fontColor=#ffffff;strokeColor=#3A5431;" parent="1" vertex="1">
          <mxGeometry x="205" y="150" width="120" height="60" as="geometry" />
        </mxCell>
        <mxCell id="tU63LrtW1Hu26vX-Db3a-164" value="Pays" style="shape=rhombus;perimeter=rhombusPerimeter;whiteSpace=wrap;html=1;align=center;fillColor=#6d8764;fontColor=#ffffff;strokeColor=#3A5431;" parent="1" vertex="1">
          <mxGeometry x="1460" y="1380" width="120" height="60" as="geometry" />
        </mxCell>
        <mxCell id="tU63LrtW1Hu26vX-Db3a-167" value="Has" style="shape=rhombus;perimeter=rhombusPerimeter;whiteSpace=wrap;html=1;align=center;fillColor=#6d8764;fontColor=#ffffff;strokeColor=#3A5431;" parent="1" vertex="1">
          <mxGeometry x="310" y="1180" width="90" height="50" as="geometry" />
        </mxCell>
        <mxCell id="tU63LrtW1Hu26vX-Db3a-170" value="Paid To" style="shape=rhombus;perimeter=rhombusPerimeter;whiteSpace=wrap;html=1;align=center;fillColor=#6d8764;fontColor=#ffffff;strokeColor=#3A5431;" parent="1" vertex="1">
          <mxGeometry x="635" y="1580" width="120" height="60" as="geometry" />
        </mxCell>
        <mxCell id="tU63LrtW1Hu26vX-Db3a-173" value="Has" style="shape=rhombus;perimeter=rhombusPerimeter;whiteSpace=wrap;html=1;align=center;fillColor=#6d8764;fontColor=#ffffff;strokeColor=#3A5431;" parent="1" vertex="1">
          <mxGeometry x="385" y="640" width="90" height="60" as="geometry" />
        </mxCell>
        <mxCell id="tU63LrtW1Hu26vX-Db3a-241" style="edgeStyle=none;rounded=0;orthogonalLoop=1;jettySize=auto;html=1;" parent="1" source="tU63LrtW1Hu26vX-Db3a-178" target="tU63LrtW1Hu26vX-Db3a-242" edge="1">
          <mxGeometry relative="1" as="geometry">
            <mxPoint x="490" y="535" as="targetPoint" />
          </mxGeometry>
        </mxCell>
        <mxCell id="tU63LrtW1Hu26vX-Db3a-178" value="Takes" style="shape=rhombus;perimeter=rhombusPerimeter;whiteSpace=wrap;html=1;align=center;fillColor=#6d8764;fontColor=#ffffff;strokeColor=#3A5431;" parent="1" vertex="1">
          <mxGeometry x="625" y="475" width="110" height="60" as="geometry" />
        </mxCell>
        <mxCell id="izwH1XyQJum0X2rPjAfv-7" style="edgeStyle=none;rounded=0;orthogonalLoop=1;jettySize=auto;html=1;entryX=0.5;entryY=1;entryDx=0;entryDy=0;" parent="1" source="tU63LrtW1Hu26vX-Db3a-184" target="izwH1XyQJum0X2rPjAfv-9" edge="1">
          <mxGeometry relative="1" as="geometry">
            <mxPoint x="530" y="320" as="targetPoint" />
          </mxGeometry>
        </mxCell>
        <mxCell id="tU63LrtW1Hu26vX-Db3a-184" value="Contains" style="shape=rhombus;perimeter=rhombusPerimeter;whiteSpace=wrap;html=1;align=center;fillColor=#6d8764;fontColor=#ffffff;strokeColor=#3A5431;" parent="1" vertex="1">
          <mxGeometry x="630" y="365" width="100" height="50" as="geometry" />
        </mxCell>
        <mxCell id="tU63LrtW1Hu26vX-Db3a-195" value="Description" style="shape=table;startSize=30;container=1;collapsible=1;childLayout=tableLayout;fixedRows=1;rowLines=0;fontStyle=1;align=center;resizeLast=1;" parent="1" vertex="1" collapsed="1">
          <mxGeometry x="1310" y="90" width="110" height="30" as="geometry">
            <mxRectangle x="1310" y="90" width="180" height="150" as="alternateBounds" />
          </mxGeometry>
        </mxCell>
        <mxCell id="tU63LrtW1Hu26vX-Db3a-196" value="" style="shape=tableRow;horizontal=0;startSize=0;swimlaneHead=0;swimlaneBody=0;fillColor=none;collapsible=0;dropTarget=0;points=[[0,0.5],[1,0.5]];portConstraint=eastwest;top=0;left=0;right=0;bottom=1;" parent="tU63LrtW1Hu26vX-Db3a-195" vertex="1">
          <mxGeometry y="30" width="180" height="30" as="geometry" />
        </mxCell>
        <mxCell id="tU63LrtW1Hu26vX-Db3a-197" value="1" style="shape=partialRectangle;connectable=0;fillColor=#6d8764;top=0;left=0;bottom=0;right=0;fontStyle=1;overflow=hidden;fontColor=#ffffff;strokeColor=#3A5431;" parent="tU63LrtW1Hu26vX-Db3a-196" vertex="1">
          <mxGeometry width="30" height="30" as="geometry">
            <mxRectangle width="30" height="30" as="alternateBounds" />
          </mxGeometry>
        </mxCell>
        <mxCell id="tU63LrtW1Hu26vX-Db3a-198" value="Relationship" style="shape=partialRectangle;connectable=0;fillColor=#6d8764;top=0;left=0;bottom=0;right=0;align=left;spacingLeft=6;fontStyle=1;overflow=hidden;fontColor=#ffffff;strokeColor=#3A5431;" parent="tU63LrtW1Hu26vX-Db3a-196" vertex="1">
          <mxGeometry x="30" width="150" height="30" as="geometry">
            <mxRectangle width="150" height="30" as="alternateBounds" />
          </mxGeometry>
        </mxCell>
        <mxCell id="tU63LrtW1Hu26vX-Db3a-199" value="" style="shape=tableRow;horizontal=0;startSize=0;swimlaneHead=0;swimlaneBody=0;fillColor=none;collapsible=0;dropTarget=0;points=[[0,0.5],[1,0.5]];portConstraint=eastwest;top=0;left=0;right=0;bottom=0;" parent="tU63LrtW1Hu26vX-Db3a-195" vertex="1">
          <mxGeometry y="60" width="180" height="30" as="geometry" />
        </mxCell>
        <mxCell id="tU63LrtW1Hu26vX-Db3a-200" value="2" style="shape=partialRectangle;connectable=0;fillColor=#e3c800;top=0;left=0;bottom=0;right=0;editable=1;overflow=hidden;fontColor=#000000;strokeColor=#B09500;" parent="tU63LrtW1Hu26vX-Db3a-199" vertex="1">
          <mxGeometry width="30" height="30" as="geometry">
            <mxRectangle width="30" height="30" as="alternateBounds" />
          </mxGeometry>
        </mxCell>
        <mxCell id="tU63LrtW1Hu26vX-Db3a-201" value="Entity" style="shape=partialRectangle;connectable=0;fillColor=#e3c800;top=0;left=0;bottom=0;right=0;align=left;spacingLeft=6;overflow=hidden;fontColor=#000000;strokeColor=#B09500;" parent="tU63LrtW1Hu26vX-Db3a-199" vertex="1">
          <mxGeometry x="30" width="150" height="30" as="geometry">
            <mxRectangle width="150" height="30" as="alternateBounds" />
          </mxGeometry>
        </mxCell>
        <mxCell id="tU63LrtW1Hu26vX-Db3a-202" value="" style="shape=tableRow;horizontal=0;startSize=0;swimlaneHead=0;swimlaneBody=0;fillColor=none;collapsible=0;dropTarget=0;points=[[0,0.5],[1,0.5]];portConstraint=eastwest;top=0;left=0;right=0;bottom=0;" parent="tU63LrtW1Hu26vX-Db3a-195" vertex="1">
          <mxGeometry y="90" width="180" height="30" as="geometry" />
        </mxCell>
        <mxCell id="tU63LrtW1Hu26vX-Db3a-203" value="3" style="shape=partialRectangle;connectable=0;fillColor=#a20025;top=0;left=0;bottom=0;right=0;editable=1;overflow=hidden;fontColor=#ffffff;strokeColor=#6F0000;" parent="tU63LrtW1Hu26vX-Db3a-202" vertex="1">
          <mxGeometry width="30" height="30" as="geometry">
            <mxRectangle width="30" height="30" as="alternateBounds" />
          </mxGeometry>
        </mxCell>
        <mxCell id="tU63LrtW1Hu26vX-Db3a-204" value="Attribute" style="shape=partialRectangle;connectable=0;fillColor=#a20025;top=0;left=0;bottom=0;right=0;align=left;spacingLeft=6;overflow=hidden;fontColor=#ffffff;strokeColor=#6F0000;" parent="tU63LrtW1Hu26vX-Db3a-202" vertex="1">
          <mxGeometry x="30" width="150" height="30" as="geometry">
            <mxRectangle width="150" height="30" as="alternateBounds" />
          </mxGeometry>
        </mxCell>
        <mxCell id="tU63LrtW1Hu26vX-Db3a-205" value="" style="shape=tableRow;horizontal=0;startSize=0;swimlaneHead=0;swimlaneBody=0;fillColor=none;collapsible=0;dropTarget=0;points=[[0,0.5],[1,0.5]];portConstraint=eastwest;top=0;left=0;right=0;bottom=0;" parent="tU63LrtW1Hu26vX-Db3a-195" vertex="1">
          <mxGeometry y="120" width="180" height="30" as="geometry" />
        </mxCell>
        <mxCell id="tU63LrtW1Hu26vX-Db3a-206" value="4" style="shape=partialRectangle;connectable=0;fillColor=#1ba1e2;top=0;left=0;bottom=0;right=0;editable=1;overflow=hidden;fontColor=#ffffff;strokeColor=#006EAF;" parent="tU63LrtW1Hu26vX-Db3a-205" vertex="1">
          <mxGeometry width="30" height="30" as="geometry">
            <mxRectangle width="30" height="30" as="alternateBounds" />
          </mxGeometry>
        </mxCell>
        <mxCell id="tU63LrtW1Hu26vX-Db3a-207" value="Cardiality" style="shape=partialRectangle;connectable=0;fillColor=#1ba1e2;top=0;left=0;bottom=0;right=0;align=left;spacingLeft=6;overflow=hidden;fontColor=#ffffff;strokeColor=#006EAF;" parent="tU63LrtW1Hu26vX-Db3a-205" vertex="1">
          <mxGeometry x="30" width="150" height="30" as="geometry">
            <mxRectangle width="150" height="30" as="alternateBounds" />
          </mxGeometry>
        </mxCell>
        <mxCell id="tU63LrtW1Hu26vX-Db3a-208" value="M" style="text;html=1;align=center;verticalAlign=middle;resizable=0;points=[];autosize=1;strokeColor=#006EAF;fillColor=#1ba1e2;rotation=1;fontColor=#ffffff;" parent="1" vertex="1">
          <mxGeometry x="225" y="1440" width="30" height="30" as="geometry" />
        </mxCell>
        <mxCell id="tU63LrtW1Hu26vX-Db3a-210" value="1" style="text;html=1;align=center;verticalAlign=middle;resizable=0;points=[];autosize=1;strokeColor=#006EAF;fillColor=#1ba1e2;fontColor=#ffffff;" parent="1" vertex="1">
          <mxGeometry x="205" y="730" width="30" height="30" as="geometry" />
        </mxCell>
        <mxCell id="tU63LrtW1Hu26vX-Db3a-215" value="1" style="text;html=1;align=center;verticalAlign=middle;resizable=0;points=[];autosize=1;strokeColor=#006EAF;fillColor=#1ba1e2;fontColor=#ffffff;" parent="1" vertex="1">
          <mxGeometry x="315" y="630" width="30" height="30" as="geometry" />
        </mxCell>
        <mxCell id="tU63LrtW1Hu26vX-Db3a-218" value="1" style="text;html=1;align=center;verticalAlign=middle;resizable=0;points=[];autosize=1;strokeColor=#006EAF;fillColor=#1ba1e2;fontColor=#ffffff;" parent="1" vertex="1">
          <mxGeometry x="560" y="1660" width="30" height="30" as="geometry" />
        </mxCell>
        <mxCell id="tU63LrtW1Hu26vX-Db3a-219" value="M" style="text;html=1;align=center;verticalAlign=middle;resizable=0;points=[];autosize=1;strokeColor=#006EAF;fillColor=#1ba1e2;rotation=1;fontColor=#ffffff;" parent="1" vertex="1">
          <mxGeometry x="1535" y="1570" width="30" height="30" as="geometry" />
        </mxCell>
        <mxCell id="tU63LrtW1Hu26vX-Db3a-220" value="M" style="text;html=1;align=center;verticalAlign=middle;resizable=0;points=[];autosize=1;strokeColor=#006EAF;fillColor=#1ba1e2;rotation=1;fontColor=#ffffff;" parent="1" vertex="1">
          <mxGeometry x="1420" y="1040" width="30" height="30" as="geometry" />
        </mxCell>
        <mxCell id="tU63LrtW1Hu26vX-Db3a-224" value="Date" style="ellipse;whiteSpace=wrap;html=1;align=center;fillColor=#a20025;fontColor=#ffffff;strokeColor=#6F0000;" parent="1" vertex="1">
          <mxGeometry x="1330" y="1770" width="100" height="40" as="geometry" />
        </mxCell>
        <mxCell id="tU63LrtW1Hu26vX-Db3a-227" value="M" style="text;html=1;align=center;verticalAlign=middle;resizable=0;points=[];autosize=1;strokeColor=#006EAF;fillColor=#1ba1e2;rotation=0;fontColor=#ffffff;" parent="1" vertex="1">
          <mxGeometry x="960" y="435" width="30" height="30" as="geometry" />
        </mxCell>
        <mxCell id="tU63LrtW1Hu26vX-Db3a-229" value="M" style="text;html=1;align=center;verticalAlign=middle;resizable=0;points=[];autosize=1;strokeColor=#006EAF;fillColor=#1ba1e2;rotation=0;fontColor=#ffffff;" parent="1" vertex="1">
          <mxGeometry x="952" y="350" width="30" height="30" as="geometry" />
        </mxCell>
        <mxCell id="tU63LrtW1Hu26vX-Db3a-230" value="M" style="text;html=1;align=center;verticalAlign=middle;resizable=0;points=[];autosize=1;strokeColor=#006EAF;fillColor=#1ba1e2;rotation=0;fontColor=#ffffff;" parent="1" vertex="1">
          <mxGeometry x="340" y="370" width="30" height="30" as="geometry" />
        </mxCell>
        <mxCell id="tU63LrtW1Hu26vX-Db3a-231" value="1" style="text;html=1;align=center;verticalAlign=middle;resizable=0;points=[];autosize=1;strokeColor=#006EAF;fillColor=#1ba1e2;rotation=1;fontColor=#ffffff;" parent="1" vertex="1">
          <mxGeometry x="400" y="270" width="30" height="30" as="geometry" />
        </mxCell>
        <mxCell id="tU63LrtW1Hu26vX-Db3a-235" value="M" style="text;html=1;align=center;verticalAlign=middle;resizable=0;points=[];autosize=1;strokeColor=#006EAF;fillColor=#1ba1e2;rotation=1;fontColor=#ffffff;" parent="1" vertex="1">
          <mxGeometry x="1161" y="410" width="30" height="30" as="geometry" />
        </mxCell>
        <mxCell id="tU63LrtW1Hu26vX-Db3a-236" value="1" style="text;html=1;align=center;verticalAlign=middle;resizable=0;points=[];autosize=1;strokeColor=#006EAF;fillColor=#1ba1e2;rotation=1;fontColor=#ffffff;" parent="1" vertex="1">
          <mxGeometry x="1420" y="910" width="30" height="30" as="geometry" />
        </mxCell>
        <mxCell id="tU63LrtW1Hu26vX-Db3a-242" value="Notes" style="ellipse;whiteSpace=wrap;html=1;align=center;fillColor=#a20025;fontColor=#ffffff;strokeColor=#6F0000;" parent="1" vertex="1">
          <mxGeometry x="390" y="510" width="100" height="40" as="geometry" />
        </mxCell>
        <mxCell id="tU63LrtW1Hu26vX-Db3a-246" value="M" style="text;html=1;align=center;verticalAlign=middle;resizable=0;points=[];autosize=1;strokeColor=#006EAF;fillColor=#1ba1e2;rotation=1;fontColor=#ffffff;" parent="1" vertex="1">
          <mxGeometry x="820" y="1220" width="30" height="30" as="geometry" />
        </mxCell>
        <mxCell id="tU63LrtW1Hu26vX-Db3a-252" style="edgeStyle=none;rounded=0;orthogonalLoop=1;jettySize=auto;html=1;entryX=0.5;entryY=1;entryDx=0;entryDy=0;" parent="1" source="tU63LrtW1Hu26vX-Db3a-248" target="tU63LrtW1Hu26vX-Db3a-251" edge="1">
          <mxGeometry relative="1" as="geometry" />
        </mxCell>
        <mxCell id="tU63LrtW1Hu26vX-Db3a-253" style="edgeStyle=none;rounded=0;orthogonalLoop=1;jettySize=auto;html=1;entryX=0.5;entryY=0;entryDx=0;entryDy=0;" parent="1" source="tU63LrtW1Hu26vX-Db3a-248" target="tU63LrtW1Hu26vX-Db3a-255" edge="1">
          <mxGeometry relative="1" as="geometry">
            <mxPoint x="100" y="970" as="targetPoint" />
          </mxGeometry>
        </mxCell>
        <mxCell id="tU63LrtW1Hu26vX-Db3a-254" style="edgeStyle=none;rounded=0;orthogonalLoop=1;jettySize=auto;html=1;entryX=0.5;entryY=0;entryDx=0;entryDy=0;" parent="1" source="tU63LrtW1Hu26vX-Db3a-248" target="tU63LrtW1Hu26vX-Db3a-256" edge="1">
          <mxGeometry relative="1" as="geometry">
            <mxPoint x="10" y="970" as="targetPoint" />
          </mxGeometry>
        </mxCell>
        <mxCell id="04_-kRFZyzAA1Dihmmcf-39" style="edgeStyle=none;rounded=0;orthogonalLoop=1;jettySize=auto;html=1;entryX=0.5;entryY=0;entryDx=0;entryDy=0;" parent="1" source="tU63LrtW1Hu26vX-Db3a-248" target="04_-kRFZyzAA1Dihmmcf-38" edge="1">
          <mxGeometry relative="1" as="geometry" />
        </mxCell>
        <mxCell id="tU63LrtW1Hu26vX-Db3a-248" value="Owner" style="rounded=0;whiteSpace=wrap;html=1;fillColor=#e3c800;fontColor=#000000;strokeColor=#B09500;" parent="1" vertex="1">
          <mxGeometry x="-90" y="1110" width="130" height="40" as="geometry" />
        </mxCell>
        <mxCell id="tU63LrtW1Hu26vX-Db3a-251" value="owned by" style="shape=rhombus;perimeter=rhombusPerimeter;whiteSpace=wrap;html=1;align=center;fillColor=#6d8764;fontColor=#ffffff;strokeColor=#3A5431;" parent="1" vertex="1">
          <mxGeometry x="25" y="740" width="90" height="50" as="geometry" />
        </mxCell>
        <mxCell id="tU63LrtW1Hu26vX-Db3a-255" value="Name" style="ellipse;whiteSpace=wrap;html=1;align=center;fillColor=#a20025;fontColor=#ffffff;strokeColor=#6F0000;" parent="1" vertex="1">
          <mxGeometry x="40" y="1240" width="100" height="40" as="geometry" />
        </mxCell>
        <mxCell id="tU63LrtW1Hu26vX-Db3a-256" value="&lt;u&gt;ID&lt;/u&gt;" style="ellipse;whiteSpace=wrap;html=1;align=center;fillColor=#a20025;fontColor=#ffffff;strokeColor=#6F0000;" parent="1" vertex="1">
          <mxGeometry x="-75" y="1240" width="100" height="40" as="geometry" />
        </mxCell>
        <mxCell id="tU63LrtW1Hu26vX-Db3a-258" value="M" style="text;html=1;align=center;verticalAlign=middle;resizable=0;points=[];autosize=1;strokeColor=#006EAF;fillColor=#1ba1e2;rotation=1;fontColor=#ffffff;" parent="1" vertex="1">
          <mxGeometry x="-55" y="1050" width="30" height="30" as="geometry" />
        </mxCell>
        <mxCell id="tU63LrtW1Hu26vX-Db3a-259" value="M" style="text;html=1;align=center;verticalAlign=middle;resizable=0;points=[];autosize=1;strokeColor=#006EAF;fillColor=#1ba1e2;rotation=1;fontColor=#ffffff;" parent="1" vertex="1">
          <mxGeometry x="130" y="715" width="30" height="30" as="geometry" />
        </mxCell>
        <mxCell id="04_-kRFZyzAA1Dihmmcf-9" value="Has" style="shape=rhombus;perimeter=rhombusPerimeter;whiteSpace=wrap;html=1;align=center;fillColor=#6d8764;fontColor=#ffffff;strokeColor=#3A5431;" parent="1" vertex="1">
          <mxGeometry x="480" y="930" width="90" height="50" as="geometry" />
        </mxCell>
        <mxCell id="04_-kRFZyzAA1Dihmmcf-11" value="M" style="text;html=1;align=center;verticalAlign=middle;resizable=0;points=[];autosize=1;strokeColor=#006EAF;fillColor=#1ba1e2;rotation=1;fontColor=#ffffff;" parent="1" vertex="1">
          <mxGeometry x="717" y="1210" width="30" height="30" as="geometry" />
        </mxCell>
        <mxCell id="04_-kRFZyzAA1Dihmmcf-19" value="Table Number" style="ellipse;whiteSpace=wrap;html=1;fillColor=#a20025;fontColor=#ffffff;strokeColor=#6F0000;" parent="1" vertex="1">
          <mxGeometry x="1400" y="475" width="100" height="40" as="geometry" />
        </mxCell>
        <mxCell id="04_-kRFZyzAA1Dihmmcf-24" value="Password" style="ellipse;whiteSpace=wrap;html=1;align=center;fillColor=#a20025;fontColor=#ffffff;strokeColor=#6F0000;" parent="1" vertex="1">
          <mxGeometry x="50" y="1734" width="100" height="40" as="geometry" />
        </mxCell>
        <mxCell id="04_-kRFZyzAA1Dihmmcf-26" value="UserName" style="ellipse;whiteSpace=wrap;html=1;align=center;fillColor=#a20025;fontColor=#ffffff;strokeColor=#6F0000;" parent="1" vertex="1">
          <mxGeometry x="-30" y="1690" width="100" height="40" as="geometry" />
        </mxCell>
        <mxCell id="04_-kRFZyzAA1Dihmmcf-37" value="Phone" style="ellipse;whiteSpace=wrap;html=1;align=center;fillColor=#a20025;fontColor=#ffffff;strokeColor=#6F0000;" parent="1" vertex="1">
          <mxGeometry x="-110" y="1640" width="100" height="40" as="geometry" />
        </mxCell>
        <mxCell id="04_-kRFZyzAA1Dihmmcf-38" value="address" style="ellipse;whiteSpace=wrap;html=1;align=center;fillColor=#a20025;fontColor=#ffffff;strokeColor=#6F0000;" parent="1" vertex="1">
          <mxGeometry x="-190" y="1240" width="100" height="40" as="geometry" />
        </mxCell>
        <mxCell id="04_-kRFZyzAA1Dihmmcf-41" value="Phone" style="ellipse;whiteSpace=wrap;html=1;align=center;fillColor=#a20025;fontColor=#ffffff;strokeColor=#6F0000;" parent="1" vertex="1">
          <mxGeometry x="890" y="1380" width="100" height="40" as="geometry" />
        </mxCell>
        <mxCell id="04_-kRFZyzAA1Dihmmcf-44" value="Item Name" style="ellipse;whiteSpace=wrap;html=1;align=center;fillColor=#a20025;fontColor=#ffffff;strokeColor=#6F0000;" parent="1" vertex="1">
          <mxGeometry x="40" y="315" width="100" height="40" as="geometry" />
        </mxCell>
        <mxCell id="04_-kRFZyzAA1Dihmmcf-54" style="edgeStyle=none;rounded=0;orthogonalLoop=1;jettySize=auto;html=1;entryX=0.5;entryY=0;entryDx=0;entryDy=0;" parent="1" source="04_-kRFZyzAA1Dihmmcf-48" target="04_-kRFZyzAA1Dihmmcf-55" edge="1">
          <mxGeometry relative="1" as="geometry">
            <mxPoint x="979.9999999999995" y="1240" as="targetPoint" />
          </mxGeometry>
        </mxCell>
        <mxCell id="04_-kRFZyzAA1Dihmmcf-58" style="edgeStyle=none;rounded=0;orthogonalLoop=1;jettySize=auto;html=1;entryX=0.5;entryY=0;entryDx=0;entryDy=0;" parent="1" source="04_-kRFZyzAA1Dihmmcf-48" target="04_-kRFZyzAA1Dihmmcf-56" edge="1">
          <mxGeometry relative="1" as="geometry" />
        </mxCell>
        <mxCell id="04_-kRFZyzAA1Dihmmcf-59" style="edgeStyle=none;rounded=0;orthogonalLoop=1;jettySize=auto;html=1;entryX=0;entryY=0;entryDx=0;entryDy=0;" parent="1" source="04_-kRFZyzAA1Dihmmcf-48" target="04_-kRFZyzAA1Dihmmcf-57" edge="1">
          <mxGeometry relative="1" as="geometry" />
        </mxCell>
        <mxCell id="04_-kRFZyzAA1Dihmmcf-88" style="edgeStyle=none;rounded=0;orthogonalLoop=1;jettySize=auto;html=1;entryX=0.5;entryY=1;entryDx=0;entryDy=0;" parent="1" source="04_-kRFZyzAA1Dihmmcf-48" target="04_-kRFZyzAA1Dihmmcf-87" edge="1">
          <mxGeometry relative="1" as="geometry" />
        </mxCell>
        <mxCell id="04_-kRFZyzAA1Dihmmcf-91" style="edgeStyle=none;rounded=0;orthogonalLoop=1;jettySize=auto;html=1;entryX=0.5;entryY=1;entryDx=0;entryDy=0;" parent="1" source="04_-kRFZyzAA1Dihmmcf-48" target="04_-kRFZyzAA1Dihmmcf-93" edge="1">
          <mxGeometry relative="1" as="geometry">
            <mxPoint x="1310" y="760" as="targetPoint" />
          </mxGeometry>
        </mxCell>
        <mxCell id="04_-kRFZyzAA1Dihmmcf-48" value="Delivery" style="whiteSpace=wrap;html=1;align=center;fillColor=#e3c800;fontColor=#000000;strokeColor=#B09500;" parent="1" vertex="1">
          <mxGeometry x="1163.5" y="1187.5" width="110" height="40" as="geometry" />
        </mxCell>
        <mxCell id="04_-kRFZyzAA1Dihmmcf-52" value="M" style="text;html=1;align=center;verticalAlign=middle;resizable=0;points=[];autosize=1;strokeColor=#006EAF;fillColor=#1ba1e2;rotation=1;fontColor=#ffffff;" parent="1" vertex="1">
          <mxGeometry x="1390" y="1590" width="30" height="30" as="geometry" />
        </mxCell>
        <mxCell id="04_-kRFZyzAA1Dihmmcf-55" value="Phone" style="ellipse;whiteSpace=wrap;html=1;align=center;fillColor=#a20025;fontColor=#ffffff;strokeColor=#6F0000;" parent="1" vertex="1">
          <mxGeometry x="1083.5" y="1277.5" width="100" height="40" as="geometry" />
        </mxCell>
        <mxCell id="04_-kRFZyzAA1Dihmmcf-57" value="Name" style="ellipse;whiteSpace=wrap;html=1;align=center;fillColor=#a20025;fontColor=#ffffff;strokeColor=#6F0000;" parent="1" vertex="1">
          <mxGeometry x="1298.5" y="1237.5" width="100" height="40" as="geometry" />
        </mxCell>
        <mxCell id="04_-kRFZyzAA1Dihmmcf-70" value="Phone" style="ellipse;shape=doubleEllipse;margin=3;whiteSpace=wrap;html=1;align=center;fillColor=#647687;strokeColor=#314354;fontColor=#ffffff;" parent="1" vertex="1">
          <mxGeometry x="-25" y="589.5" width="110" height="40" as="geometry" />
        </mxCell>
        <mxCell id="04_-kRFZyzAA1Dihmmcf-74" value="Total cost" style="ellipse;whiteSpace=wrap;html=1;fillColor=#a20025;fontColor=#ffffff;strokeColor=#6F0000;" parent="1" vertex="1">
          <mxGeometry x="970" y="210" width="100" height="40" as="geometry" />
        </mxCell>
        <mxCell id="04_-kRFZyzAA1Dihmmcf-78" value="Supervise" style="shape=rhombus;perimeter=rhombusPerimeter;whiteSpace=wrap;html=1;align=center;fillColor=#6d8764;fontColor=#ffffff;strokeColor=#3A5431;" parent="1" vertex="1">
          <mxGeometry x="640" y="1450" width="90" height="50" as="geometry" />
        </mxCell>
        <mxCell id="04_-kRFZyzAA1Dihmmcf-56" value="ID" style="ellipse;whiteSpace=wrap;html=1;align=center;fontStyle=4;fillColor=#a20025;fontColor=#ffffff;strokeColor=#6F0000;" parent="1" vertex="1">
          <mxGeometry x="1203.5" y="1292.5" width="100" height="40" as="geometry" />
        </mxCell>
        <mxCell id="04_-kRFZyzAA1Dihmmcf-87" value="Taken By" style="shape=rhombus;perimeter=rhombusPerimeter;whiteSpace=wrap;html=1;align=center;fillColor=#6d8764;fontColor=#ffffff;strokeColor=#3A5431;" parent="1" vertex="1">
          <mxGeometry x="1020" y="715" width="100" height="60" as="geometry" />
        </mxCell>
        <mxCell id="04_-kRFZyzAA1Dihmmcf-89" value="M" style="text;html=1;align=center;verticalAlign=middle;resizable=0;points=[];autosize=1;strokeColor=#006EAF;fillColor=#1ba1e2;rotation=1;fontColor=#ffffff;" parent="1" vertex="1">
          <mxGeometry x="1050" y="435" width="30" height="30" as="geometry" />
        </mxCell>
        <mxCell id="04_-kRFZyzAA1Dihmmcf-90" value="1" style="text;html=1;align=center;verticalAlign=middle;resizable=0;points=[];autosize=1;strokeColor=#006EAF;fillColor=#1ba1e2;rotation=1;fontColor=#ffffff;" parent="1" vertex="1">
          <mxGeometry x="1153.5" y="1130" width="30" height="30" as="geometry" />
        </mxCell>
        <mxCell id="04_-kRFZyzAA1Dihmmcf-93" value="Go to" style="shape=rhombus;perimeter=rhombusPerimeter;whiteSpace=wrap;html=1;align=center;fillColor=#6d8764;fontColor=#ffffff;strokeColor=#3A5431;" parent="1" vertex="1">
          <mxGeometry x="1291" y="1080" width="90" height="50" as="geometry" />
        </mxCell>
        <mxCell id="04_-kRFZyzAA1Dihmmcf-94" value="1" style="text;html=1;align=center;verticalAlign=middle;resizable=0;points=[];autosize=1;strokeColor=#006EAF;fillColor=#1ba1e2;rotation=0;fontColor=#ffffff;" parent="1" vertex="1">
          <mxGeometry x="1280" y="1187.5" width="30" height="30" as="geometry" />
        </mxCell>
        <mxCell id="04_-kRFZyzAA1Dihmmcf-95" value="M" style="text;html=1;align=center;verticalAlign=middle;resizable=0;points=[];autosize=1;strokeColor=#006EAF;fillColor=#1ba1e2;rotation=1;fontColor=#ffffff;" parent="1" vertex="1">
          <mxGeometry x="755" y="1450" width="30" height="30" as="geometry" />
        </mxCell>
        <mxCell id="04_-kRFZyzAA1Dihmmcf-96" value="1" style="text;html=1;align=center;verticalAlign=middle;resizable=0;points=[];autosize=1;strokeColor=#006EAF;fillColor=#1ba1e2;rotation=1;fontColor=#ffffff;" parent="1" vertex="1">
          <mxGeometry x="660" y="1380" width="30" height="30" as="geometry" />
        </mxCell>
        <mxCell id="04_-kRFZyzAA1Dihmmcf-97" value="1" style="text;html=1;align=center;verticalAlign=middle;resizable=0;points=[];autosize=1;strokeColor=#006EAF;fillColor=#1ba1e2;rotation=1;fontColor=#ffffff;" parent="1" vertex="1">
          <mxGeometry x="1520" y="1030" width="30" height="30" as="geometry" />
        </mxCell>
        <mxCell id="izwH1XyQJum0X2rPjAfv-1" value="Description" style="ellipse;whiteSpace=wrap;html=1;align=center;fillColor=#a20025;fontColor=#ffffff;strokeColor=#6F0000;" parent="1" vertex="1">
          <mxGeometry x="1090" y="210" width="100" height="40" as="geometry" />
        </mxCell>
        <mxCell id="izwH1XyQJum0X2rPjAfv-4" value="Type" style="ellipse;whiteSpace=wrap;html=1;fillColor=#a20025;fontColor=#ffffff;strokeColor=#6F0000;" parent="1" vertex="1">
          <mxGeometry x="1191" y="240" width="100" height="40" as="geometry" />
        </mxCell>
        <mxCell id="izwH1XyQJum0X2rPjAfv-6" value="Order Date" style="ellipse;whiteSpace=wrap;html=1;fillColor=#a20025;fontColor=#ffffff;strokeColor=#6F0000;" parent="1" vertex="1">
          <mxGeometry x="1250" y="300" width="100" height="40" as="geometry" />
        </mxCell>
        <mxCell id="izwH1XyQJum0X2rPjAfv-9" value="Quantity" style="ellipse;whiteSpace=wrap;html=1;fillColor=#a20025;fontColor=#ffffff;strokeColor=#6F0000;" parent="1" vertex="1">
          <mxGeometry x="630" y="290" width="100" height="40" as="geometry" />
        </mxCell>
        <mxCell id="MzI8PsqjQWy4eNcxoBcf-11" value="&lt;b&gt;&lt;font style=&quot;font-size: 25px;&quot;&gt;Dine_In&lt;/font&gt;&lt;/b&gt;" style="shape=rhombus;perimeter=rhombusPerimeter;whiteSpace=wrap;html=1;align=center;fillColor=#6d8764;fontColor=#ffffff;strokeColor=#3A5431;" parent="1" vertex="1">
          <mxGeometry x="695" y="-150" width="250" height="110" as="geometry" />
        </mxCell>
        <mxCell id="MzI8PsqjQWy4eNcxoBcf-14" value="M" style="text;html=1;align=center;verticalAlign=middle;resizable=0;points=[];autosize=1;strokeColor=#006EAF;fillColor=#1ba1e2;rotation=1;fontColor=#ffffff;" parent="1" vertex="1">
          <mxGeometry x="1770" y="980" width="30" height="30" as="geometry" />
        </mxCell>
        <mxCell id="MzI8PsqjQWy4eNcxoBcf-15" value="M" style="text;html=1;align=center;verticalAlign=middle;resizable=0;points=[];autosize=1;strokeColor=#006EAF;fillColor=#1ba1e2;rotation=1;fontColor=#ffffff;" parent="1" vertex="1">
          <mxGeometry x="-230" y="645" width="30" height="30" as="geometry" />
        </mxCell>
        <mxCell id="8JrK8QZhRtHGz3mlY4Qh-3" style="edgeStyle=orthogonalEdgeStyle;rounded=0;orthogonalLoop=1;jettySize=auto;html=1;exitX=1;exitY=1;exitDx=0;exitDy=0;entryX=0.5;entryY=1;entryDx=0;entryDy=0;" parent="1" source="tU63LrtW1Hu26vX-Db3a-251" target="tU63LrtW1Hu26vX-Db3a-251" edge="1">
          <mxGeometry relative="1" as="geometry" />
        </mxCell>
        <mxCell id="8JrK8QZhRtHGz3mlY4Qh-6" value="" style="edgeStyle=none;rounded=0;orthogonalLoop=1;jettySize=auto;html=1;entryX=0;entryY=0.5;entryDx=0;entryDy=0;shape=link;" parent="1" source="tU63LrtW1Hu26vX-Db3a-116" target="tU63LrtW1Hu26vX-Db3a-247" edge="1">
          <mxGeometry relative="1" as="geometry">
            <mxPoint x="900" y="880" as="targetPoint" />
            <mxPoint x="624" y="690" as="sourcePoint" />
          </mxGeometry>
        </mxCell>
        <mxCell id="tU63LrtW1Hu26vX-Db3a-247" value="M" style="text;html=1;align=center;verticalAlign=middle;resizable=0;points=[];autosize=1;strokeColor=#006EAF;fillColor=#1ba1e2;rotation=1;fontColor=#ffffff;" parent="1" vertex="1">
          <mxGeometry x="730" y="710" width="30" height="30" as="geometry" />
        </mxCell>
        <mxCell id="8JrK8QZhRtHGz3mlY4Qh-7" value="" style="edgeStyle=none;rounded=0;orthogonalLoop=1;jettySize=auto;html=1;entryX=0.5;entryY=1;entryDx=0;entryDy=0;shape=link;" parent="1" source="tU63LrtW1Hu26vX-Db3a-4" target="tU63LrtW1Hu26vX-Db3a-232" edge="1">
          <mxGeometry relative="1" as="geometry">
            <mxPoint x="265" y="370" as="sourcePoint" />
            <mxPoint x="265" y="210" as="targetPoint" />
          </mxGeometry>
        </mxCell>
        <mxCell id="tU63LrtW1Hu26vX-Db3a-232" value="M" style="text;html=1;align=center;verticalAlign=middle;resizable=0;points=[];autosize=1;strokeColor=#006EAF;fillColor=#1ba1e2;rotation=0;fontColor=#ffffff;" parent="1" vertex="1">
          <mxGeometry x="250" y="320" width="30" height="30" as="geometry" />
        </mxCell>
        <mxCell id="8JrK8QZhRtHGz3mlY4Qh-10" value="" style="edgeStyle=none;rounded=0;orthogonalLoop=1;jettySize=auto;html=1;entryX=1;entryY=0.5;entryDx=0;entryDy=0;shape=link;" parent="1" source="tU63LrtW1Hu26vX-Db3a-116" target="tU63LrtW1Hu26vX-Db3a-216" edge="1">
          <mxGeometry relative="1" as="geometry">
            <mxPoint x="475" y="670" as="targetPoint" />
            <mxPoint x="630" y="670" as="sourcePoint" />
          </mxGeometry>
        </mxCell>
        <mxCell id="tU63LrtW1Hu26vX-Db3a-216" value="M" style="text;html=1;align=center;verticalAlign=middle;resizable=0;points=[];autosize=1;strokeColor=#006EAF;fillColor=#1ba1e2;rotation=1;fontColor=#ffffff;" parent="1" vertex="1">
          <mxGeometry x="560" y="655" width="30" height="30" as="geometry" />
        </mxCell>
        <mxCell id="8JrK8QZhRtHGz3mlY4Qh-11" value="" style="edgeStyle=none;rounded=0;orthogonalLoop=1;jettySize=auto;html=1;entryX=0.5;entryY=1;entryDx=0;entryDy=0;" parent="1" source="tU63LrtW1Hu26vX-Db3a-116" target="tU63LrtW1Hu26vX-Db3a-228" edge="1">
          <mxGeometry relative="1" as="geometry">
            <mxPoint x="680" y="535" as="targetPoint" />
            <mxPoint x="684" y="650" as="sourcePoint" />
          </mxGeometry>
        </mxCell>
        <mxCell id="tU63LrtW1Hu26vX-Db3a-228" value="1" style="text;html=1;align=center;verticalAlign=middle;resizable=0;points=[];autosize=1;strokeColor=#006EAF;fillColor=#1ba1e2;rotation=1;fontColor=#ffffff;" parent="1" vertex="1">
          <mxGeometry x="665" y="589.5" width="30" height="30" as="geometry" />
        </mxCell>
        <mxCell id="8JrK8QZhRtHGz3mlY4Qh-14" value="" style="rounded=0;orthogonalLoop=1;jettySize=auto;html=1;entryX=0;entryY=0.5;entryDx=0;entryDy=0;shape=link;" parent="1" source="tU63LrtW1Hu26vX-Db3a-2" target="04_-kRFZyzAA1Dihmmcf-10" edge="1">
          <mxGeometry relative="1" as="geometry">
            <mxPoint x="500" y="935" as="targetPoint" />
            <mxPoint x="256" y="700" as="sourcePoint" />
          </mxGeometry>
        </mxCell>
        <mxCell id="04_-kRFZyzAA1Dihmmcf-10" value="1" style="text;html=1;align=center;verticalAlign=middle;resizable=0;points=[];autosize=1;strokeColor=#006EAF;fillColor=#1ba1e2;fontColor=#ffffff;" parent="1" vertex="1">
          <mxGeometry x="295" y="730" width="30" height="30" as="geometry" />
        </mxCell>
        <mxCell id="WAjuUdpSZV3qrky3hE1L-1" style="edgeStyle=orthogonalEdgeStyle;rounded=0;orthogonalLoop=1;jettySize=auto;html=1;exitX=0;exitY=0.25;exitDx=0;exitDy=0;entryX=0;entryY=0;entryDx=0;entryDy=0;" edge="1" parent="1" source="tU63LrtW1Hu26vX-Db3a-195" target="tU63LrtW1Hu26vX-Db3a-195">
          <mxGeometry relative="1" as="geometry" />
        </mxCell>
      </root>
    </mxGraphModel>
  </diagram>
</mxfile>
